<svg width="25" height="24" viewBox="0 0 25 24" fill="none" xmlns="http://www.w3.org/2000/svg">
<path d="M2 20.9255C2 21.3817 2.37829 21.76 2.83446 21.76L23.4178 21.76C23.874 21.76 24.2523 21.3817 24.2523 20.9255C24.2523 20.4694 23.874 20.0911 23.4178 20.0911L2.83446 20.0911C2.37829 20.0911 2 20.4694 2 20.9255Z" fill="#263238"/>
<path d="M12.3361 17.6433L12.3361 10.7785C12.3361 9.71039 11.4571 8.83143 10.389 8.83143L6.22784 8.83143C5.15973 8.83143 4.28076 9.71039 4.28076 10.7785L4.28076 17.6433C4.28076 18.0995 4.65905 18.4778 5.11522 18.4778L11.5016 18.4778C11.9578 18.4778 12.3361 18.1106 12.3361 17.6433Z" fill="#263238"/>
<path d="M13.8491 3.94716L13.8491 17.6546C13.8491 18.1107 14.2274 18.489 14.6836 18.489L21.07 18.489C21.5261 18.489 21.9044 18.1107 21.9044 17.6546L21.9044 3.94716C21.9044 2.87905 21.0255 2.00008 19.9574 2.00008L15.7962 2.00008C14.7281 2.00008 13.8491 2.86792 13.8491 3.94716Z" fill="#263238"/>
</svg>
