<svg width="24" height="24" viewBox="0 0 24 24" fill="none" xmlns="http://www.w3.org/2000/svg">
<path d="M3.2002 7.4V9.6C3.2002 10.7 6.6002 12.4 12.0002 12.4C17.4002 12.4 20.8002 10.8 20.8002 9.6V7.4C18.8002 8.7 15.4002 9.3 12.0002 9.3C8.6002 9.3 5.2002 8.6 3.2002 7.4ZM12.0002 7.5C17.4002 7.5 20.8002 5.9 20.8002 4.7C20.8002 3.5 17.4002 2 12.0002 2C6.6002 2 3.2002 3.6 3.2002 4.7C3.2002 5.8 6.6002 7.5 12.0002 7.5ZM12.0002 18.9C8.6002 18.9 5.2002 18.3 3.2002 17V19.2C3.2002 20.3 6.6002 21.9 12.0002 21.9C17.4002 21.9 20.8002 20.3 20.8002 19.2V17C18.8002 18.3 15.4002 18.9 12.0002 18.9ZM12.0002 14.1C8.6002 14.1 5.2002 13.5 3.2002 12.2V14.4C3.2002 15.5 6.6002 17.1 12.0002 17.1C17.4002 17.1 20.8002 15.5 20.8002 14.4V12.2C18.8002 13.4 15.4002 14.1 12.0002 14.1Z" fill="#263238"/>
</svg>
