<svg width="24" height="24" viewBox="0 0 24 24" fill="none" xmlns="http://www.w3.org/2000/svg">
<path fill-rule="evenodd" clip-rule="evenodd" d="M12 24C18.6274 24 24 18.6274 24 12C24 5.37258 18.6274 0 12 0C5.37258 0 0 5.37258 0 12C0 18.6274 5.37258 24 12 24ZM17.7877 10.7877L13.0607 6.06066C12.4749 5.47487 11.5251 5.47487 10.9393 6.06066L6.21232 10.7877C5.62653 11.3735 5.62653 12.3232 6.21232 12.909L10.9393 17.636C11.5251 18.2218 12.4749 18.2218 13.0607 17.636L17.7877 12.909C18.3735 12.3232 18.3735 11.3735 17.7877 10.7877Z" fill="#263238"/>
</svg>
