<svg width="24" height="25" viewBox="0 0 24 25" fill="none" xmlns="http://www.w3.org/2000/svg">
<path d="M19 18.675H18H19ZM19 10.529H20H19ZM18.1483 8.35486L17.4146 9.03427L18.1483 8.35486ZM14.9502 4.90088L14.2164 5.58029L14.9502 4.90088ZM8.2002 21.875V20.875V21.875ZM15.8002 21.875V22.875V21.875ZM5.21799 20.783L6.10899 20.329L5.21799 20.783ZM6.0918 21.657L6.54579 20.766L6.0918 21.657ZM6.0918 4.09299L6.54579 4.98399L6.54579 4.98399L6.0918 4.09299ZM5.21799 4.96704L4.32698 4.51305L4.32698 4.51305L5.21799 4.96704ZM14.2168 4.19843L13.6715 5.0367V5.0367L14.2168 4.19843ZM13.6151 3.93577L13.8598 2.96616V2.96616L13.6151 3.93577ZM18.9502 9.61432L17.9752 9.83653L18.9502 9.61432ZM18.7332 9.05999L19.5996 8.56062V8.56062L18.7332 9.05999ZM18.7822 20.783L19.6732 21.237L18.7822 20.783ZM17.9078 21.657L18.3618 22.548L17.9078 21.657ZM9 16.875C8.44772 16.875 8 17.3227 8 17.875C8 18.4273 8.44772 18.875 9 18.875V16.875ZM15 18.875C15.5523 18.875 16 18.4273 16 17.875C16 17.3227 15.5523 16.875 15 16.875V18.875ZM9 13.875C8.44772 13.875 8 14.3227 8 14.875C8 15.4273 8.44772 15.875 9 15.875V13.875ZM15 15.875C15.5523 15.875 16 15.4273 16 14.875C16 14.3227 15.5523 13.875 15 13.875V15.875ZM18.9996 10.875C19.5519 10.875 19.9996 10.4273 19.9996 9.875C19.9996 9.32272 19.5519 8.875 18.9996 8.875V10.875ZM14.5996 9.875V8.875V9.875ZM14 3.875C14 3.32272 13.5523 2.875 13 2.875C12.4477 2.875 12 3.32272 12 3.875H14ZM13.5459 9.76599L13.9999 8.87498L13.5459 9.76599ZM13.109 9.32901L14 8.87502V8.87502L13.109 9.32901ZM20 18.675V10.529H18V18.675H20ZM18.8821 7.67545L15.684 4.22147L14.2164 5.58029L17.4146 9.03427L18.8821 7.67545ZM12.6021 2.875H8.2002V4.875H12.6021V2.875ZM4 7.07501V18.675H6V7.07501H4ZM8.2002 22.875H15.8002V20.875H8.2002V22.875ZM4 18.675C4 19.2186 3.99922 19.6864 4.03057 20.07C4.06287 20.4654 4.13419 20.8586 4.32698 21.237L6.10899 20.329C6.0838 20.2795 6.04612 20.1788 6.02393 19.9072C6.00078 19.6238 6 19.2516 6 18.675H4ZM8.2002 20.875C7.62367 20.875 7.25127 20.8742 6.96782 20.8511C6.69598 20.8288 6.59519 20.7911 6.54579 20.766L5.63781 22.548C6.01623 22.7408 6.40959 22.8121 6.80496 22.8444C7.18873 22.8758 7.65662 22.875 8.2002 22.875V20.875ZM4.32698 21.237C4.61449 21.8012 5.07311 22.2603 5.63781 22.548L6.54579 20.766C6.35784 20.6702 6.20498 20.5174 6.10899 20.329L4.32698 21.237ZM8.2002 2.875C7.65663 2.875 7.18874 2.87422 6.80498 2.90557C6.40962 2.93786 6.01624 3.00916 5.63781 3.20198L6.54579 4.98399C6.59517 4.95883 6.69595 4.92113 6.9678 4.89893C7.25126 4.87578 7.62365 4.875 8.2002 4.875V2.875ZM6 7.07501C6 6.49846 6.00078 6.12619 6.02393 5.84285C6.04612 5.57119 6.0838 5.47048 6.10899 5.42103L4.32698 4.51305C4.13419 4.89143 4.06287 5.28464 4.03057 5.67999C3.99922 6.06366 4 6.53146 4 7.07501H6ZM5.63781 3.20198C5.07306 3.48973 4.61447 3.94882 4.32698 4.51305L6.10899 5.42103C6.205 5.23261 6.35788 5.07974 6.54579 4.98399L5.63781 3.20198ZM15.684 4.22147C15.3679 3.88014 15.0986 3.57907 14.762 3.36015L13.6715 5.0367C13.7515 5.08868 13.8325 5.16563 14.2164 5.58029L15.684 4.22147ZM12.6021 4.875C13.1675 4.875 13.2781 4.88208 13.3705 4.90539L13.8598 2.96616C13.4704 2.86792 13.067 2.875 12.6021 2.875V4.875ZM14.762 3.36015C14.4847 3.17973 14.1794 3.04681 13.8598 2.96616L13.3705 4.90539C13.4779 4.93247 13.5798 4.977 13.6715 5.0367L14.762 3.36015ZM20 10.529C20 10.1112 20.006 9.74684 19.9252 9.3921L17.9752 9.83653C17.9944 9.92061 18 10.0198 18 10.529H20ZM17.4146 9.03427C17.7602 9.40758 17.8237 9.48456 17.8668 9.55935L19.5996 8.56062C19.4179 8.24549 19.1663 7.98236 18.8821 7.67545L17.4146 9.03427ZM19.9252 9.3921C19.8588 9.10091 19.7494 8.82055 19.5996 8.56062L17.8668 9.55935C17.9163 9.64521 17.9529 9.73859 17.9752 9.83653L19.9252 9.3921ZM18 18.675C18 19.2517 17.9993 19.6239 17.9762 19.9073C17.954 20.179 17.9164 20.2796 17.8912 20.329L19.6732 21.237C19.8661 20.8585 19.9373 20.4652 19.9696 20.0699C20.0008 19.6863 20 19.2185 20 18.675H18ZM15.8002 22.875C16.3438 22.875 16.8115 22.8758 17.1951 22.8444C17.5904 22.8121 17.9835 22.7407 18.3618 22.548L17.4538 20.766C17.4043 20.7912 17.3036 20.8289 17.0321 20.8511C16.7489 20.8742 16.3767 20.875 15.8002 20.875V22.875ZM17.8912 20.329C17.7956 20.5167 17.6424 20.6699 17.4538 20.766L18.3618 22.548C18.9258 22.2606 19.3854 21.8019 19.6732 21.237L17.8912 20.329ZM9 18.875H15V16.875H9V18.875ZM9 15.875H15V13.875H9V15.875ZM18.9996 8.875H14.5996V10.875H18.9996V8.875ZM14 8.275V3.875H12V8.275H14ZM14.5996 8.875C14.3031 8.875 14.1409 8.87422 14.0244 8.86469C13.9197 8.85613 13.9425 8.84573 13.9999 8.87498L13.0919 10.657C13.3632 10.7952 13.6328 10.8393 13.8615 10.858C14.0783 10.8758 14.3361 10.875 14.5996 10.875V8.875ZM12 8.275C12 8.53853 11.9992 8.79632 12.0169 9.01324C12.0356 9.24183 12.0797 9.51157 12.218 9.78301L14 8.87502C14.0293 8.93254 14.0189 8.95531 14.0103 8.85038C14.0008 8.73379 14 8.57153 14 8.275H12ZM13.9999 8.87498L14 8.87502L12.218 9.78301C12.4097 10.1592 12.7154 10.4652 13.0919 10.657L13.9999 8.87498Z" fill="#263238"/>
</svg>
