<svg width="24" height="24" viewBox="0 0 24 24" fill="none" xmlns="http://www.w3.org/2000/svg">
<path d="M6.29289 13.7071C6.68342 14.0976 7.31658 14.0976 7.70711 13.7071C8.09763 13.3166 8.09763 12.6834 7.70711 12.2929L6.29289 13.7071ZM3 9L2.29289 8.29289C1.90237 8.68342 1.90237 9.31658 2.29289 9.70711L3 9ZM7.70711 5.70711C8.09763 5.31658 8.09763 4.68342 7.70711 4.29289C7.31658 3.90237 6.68342 3.90237 6.29289 4.29289L7.70711 5.70711ZM11 18C10.4477 18 10 18.4477 10 19C10 19.5523 10.4477 20 11 20V18ZM7.70711 12.2929L3.70711 8.29289L2.29289 9.70711L6.29289 13.7071L7.70711 12.2929ZM3.70711 9.70711L7.70711 5.70711L6.29289 4.29289L2.29289 8.29289L3.70711 9.70711ZM11 20H16V18H11V20ZM16 20C19.3137 20 22 17.3137 22 14H20C20 16.2091 18.2091 18 16 18V20ZM22 14C22 10.6863 19.3137 8 16 8V10C18.2091 10 20 11.7909 20 14H22ZM16 8H3V10H16V8Z" fill="#263238"/>
</svg>
