<svg width="24" height="24" viewBox="0 0 24 24" fill="none" xmlns="http://www.w3.org/2000/svg">
<g opacity="0.8" clip-path="url(#clip0_329_5158)">
<path fill-rule="evenodd" clip-rule="evenodd" d="M3.75 12C3.75 9.992 4.46738 8.15156 5.65983 6.72097L8.43955 9.50069C7.94232 10.2078 7.65039 11.0698 7.65039 11.9999C7.65039 12.9301 7.94238 13.7922 8.4397 14.4993L5.65991 17.2791C4.46741 15.8485 3.75 14.008 3.75 12ZM6.72054 18.3398L9.50025 15.5601C10.2076 16.0577 11.0699 16.3499 12.0004 16.3499C12.9306 16.3499 13.7926 16.0579 14.4998 15.5607L17.2792 18.3401C15.8486 19.5326 14.0081 20.25 12 20.25C9.9918 20.25 8.15119 19.5325 6.72054 18.3398ZM18.3398 17.2794C19.5325 15.8488 20.25 14.0082 20.25 12C20.25 9.99186 19.5325 8.1513 18.3399 6.72067L15.5607 9.49991C16.0583 10.2072 16.3504 11.0694 16.3504 11.9999C16.3504 12.9305 16.0582 13.7928 15.5605 14.5001L18.3398 17.2794ZM14.5 8.43931C13.7928 7.94193 12.9307 7.6499 12.0004 7.6499C11.0698 7.6499 10.2074 7.94214 9.50004 8.43986L6.72044 5.66027C8.1511 4.46756 9.99175 3.75 12 3.75C14.0081 3.75 15.8486 4.46746 17.2793 5.66002L14.5 8.43931ZM12 2.25C6.61522 2.25 2.25 6.61522 2.25 12C2.25 17.3848 6.61522 21.75 12 21.75C17.3848 21.75 21.75 17.3848 21.75 12C21.75 6.61522 17.3848 2.25 12 2.25ZM9.15039 11.9999C9.15039 10.4259 10.4264 9.1499 12.0004 9.1499C13.5744 9.1499 14.8504 10.4259 14.8504 11.9999C14.8504 13.5739 13.5744 14.8499 12.0004 14.8499C10.4264 14.8499 9.15039 13.5739 9.15039 11.9999Z" fill="#333333"/>
<path d="M5.65983 6.72097L5.8366 6.5442C5.78694 6.49453 5.71867 6.46805 5.64851 6.47123C5.57835 6.47441 5.51276 6.50695 5.46779 6.5609L5.65983 6.72097ZM8.43955 9.50069L8.64405 9.64449C8.71394 9.5451 8.70224 9.40984 8.61632 9.32392L8.43955 9.50069ZM8.4397 14.4993L8.61647 14.6761C8.7024 14.5902 8.71409 14.4549 8.64419 14.3555L8.4397 14.4993ZM5.65991 17.2791L5.46788 17.4392C5.51285 17.4931 5.57843 17.5257 5.6486 17.5289C5.71876 17.532 5.78702 17.5056 5.83669 17.4559L5.65991 17.2791ZM9.50025 15.5601L9.6441 15.3556C9.5447 15.2857 9.40941 15.2974 9.32347 15.3833L9.50025 15.5601ZM6.72054 18.3398L6.54376 18.163C6.4941 18.2127 6.46762 18.281 6.4708 18.3511C6.47397 18.4213 6.50651 18.4869 6.56046 18.5318L6.72054 18.3398ZM14.4998 15.5607L14.6765 15.3839C14.5906 15.298 14.4553 15.2863 14.3559 15.3562L14.4998 15.5607ZM17.2792 18.3401L17.4392 18.5321C17.4932 18.4871 17.5257 18.4215 17.5289 18.3514C17.5321 18.2812 17.5056 18.2129 17.4559 18.1633L17.2792 18.3401ZM18.3398 17.2794L18.1631 17.4562C18.2127 17.5059 18.281 17.5323 18.3511 17.5292C18.4213 17.526 18.4869 17.4935 18.5319 17.4395L18.3398 17.2794ZM18.3399 6.72067L18.532 6.5606C18.487 6.50665 18.4214 6.47411 18.3512 6.47093C18.2811 6.46775 18.2128 6.49424 18.1631 6.5439L18.3399 6.72067ZM15.5607 9.49991L15.3839 9.32313C15.298 9.40906 15.2863 9.54435 15.3562 9.64375L15.5607 9.49991ZM15.5605 14.5001L15.3561 14.3563C15.2861 14.4557 15.2978 14.591 15.3838 14.6769L15.5605 14.5001ZM14.5 8.43931L14.3562 8.6438C14.4555 8.71371 14.5908 8.70201 14.6767 8.61609L14.5 8.43931ZM9.50004 8.43986L9.32326 8.61664C9.4092 8.70258 9.5445 8.71426 9.6439 8.64432L9.50004 8.43986ZM6.72044 5.66027L6.56036 5.46825C6.50641 5.51322 6.47387 5.57881 6.4707 5.64897C6.46752 5.71913 6.494 5.78739 6.54366 5.83705L6.72044 5.66027ZM17.2793 5.66002L17.456 5.8368C17.5057 5.78713 17.5322 5.71887 17.529 5.64871C17.5258 5.57855 17.4933 5.51296 17.4393 5.46799L17.2793 5.66002ZM5.46779 6.5609C4.23928 8.03475 3.5 9.93137 3.5 12H4C4 10.0526 4.69547 8.26836 5.85186 6.88104L5.46779 6.5609ZM8.61632 9.32392L5.8366 6.5442L5.48305 6.89775L8.26277 9.67747L8.61632 9.32392ZM7.90039 11.9999C7.90039 11.1229 8.17546 10.3109 8.64405 9.64449L8.23504 9.3569C7.70917 10.1048 7.40039 11.0167 7.40039 11.9999H7.90039ZM8.64419 14.3555C8.17552 13.6891 7.90039 12.877 7.90039 11.9999H7.40039C7.40039 12.9833 7.70923 13.8952 8.2352 14.6431L8.64419 14.3555ZM5.83669 17.4559L8.61647 14.6761L8.26292 14.3226L5.48313 17.1023L5.83669 17.4559ZM3.5 12C3.5 14.0687 4.23932 15.9653 5.46788 17.4392L5.85194 17.1191C4.69551 15.7317 4 13.9474 4 12H3.5ZM9.32347 15.3833L6.54376 18.163L6.89732 18.5166L9.67703 15.7369L9.32347 15.3833ZM12.0004 16.0999C11.123 16.0999 10.3107 15.8246 9.6441 15.3556L9.3564 15.7646C10.1045 16.2909 11.0167 16.5999 12.0004 16.5999V16.0999ZM14.3559 15.3562C13.6895 15.8248 12.8775 16.0999 12.0004 16.0999V16.5999C12.9837 16.5999 13.8957 16.2911 14.6436 15.7652L14.3559 15.3562ZM17.4559 18.1633L14.6765 15.3839L14.323 15.7374L17.1024 18.5168L17.4559 18.1633ZM12 20.5C14.0687 20.5 15.9654 19.7607 17.4392 18.5321L17.1191 18.148C15.7317 19.3045 13.9474 20 12 20V20.5ZM6.56046 18.5318C8.03437 19.7606 9.93116 20.5 12 20.5V20C10.0524 20 8.268 19.3044 6.88062 18.1478L6.56046 18.5318ZM20 12C20 13.9475 19.3044 15.732 18.1478 17.1193L18.5319 17.4395C19.7606 15.9656 20.5 14.0688 20.5 12H20ZM18.1479 6.88075C19.3044 8.26812 20 10.0525 20 12H20.5C20.5 9.93122 19.7606 8.03448 18.532 6.5606L18.1479 6.88075ZM18.1631 6.5439L15.3839 9.32313L15.7375 9.67668L18.5167 6.89745L18.1631 6.5439ZM16.6004 11.9999C16.6004 11.0163 16.2914 10.1041 15.7652 9.35606L15.3562 9.64375C15.8251 10.3103 16.1004 11.1226 16.1004 11.9999H16.6004ZM15.765 14.644C16.2913 13.8959 16.6004 12.9836 16.6004 11.9999H16.1004C16.1004 12.8773 15.8251 13.6897 15.3561 14.3563L15.765 14.644ZM18.5166 17.1026L15.7373 14.3233L15.3838 14.6769L18.1631 17.4562L18.5166 17.1026ZM14.6438 8.23482C13.8958 7.70879 12.9838 7.3999 12.0004 7.3999V7.8999C12.8775 7.8999 13.6897 8.17507 14.3562 8.6438L14.6438 8.23482ZM12.0004 7.3999C11.0166 7.3999 10.1043 7.70902 9.35617 8.23541L9.6439 8.64432C10.3105 8.17527 11.1229 7.8999 12.0004 7.8999V7.3999ZM9.67681 8.26309L6.89722 5.48349L6.54366 5.83705L9.32326 8.61664L9.67681 8.26309ZM6.88053 5.85229C8.26792 4.69565 10.0524 4 12 4V3.5C9.93111 3.5 8.03428 4.23947 6.56036 5.46825L6.88053 5.85229ZM12 4C13.9475 4 15.7318 4.69555 17.1192 5.85205L17.4393 5.46799C15.9655 4.23936 14.0687 3.5 12 3.5V4ZM14.6767 8.61609L17.456 5.8368L17.1025 5.48324L14.3232 8.26253L14.6767 8.61609ZM2.5 12C2.5 6.75329 6.75329 2.5 12 2.5V2C6.47715 2 2 6.47715 2 12H2.5ZM12 21.5C6.75329 21.5 2.5 17.2467 2.5 12H2C2 17.5228 6.47715 22 12 22V21.5ZM21.5 12C21.5 17.2467 17.2467 21.5 12 21.5V22C17.5228 22 22 17.5228 22 12H21.5ZM12 2.5C17.2467 2.5 21.5 6.75329 21.5 12H22C22 6.47715 17.5228 2 12 2V2.5ZM12.0004 8.8999C10.2883 8.8999 8.90039 10.2878 8.90039 11.9999H9.40039C9.40039 10.564 10.5645 9.3999 12.0004 9.3999V8.8999ZM15.1004 11.9999C15.1004 10.2878 13.7125 8.8999 12.0004 8.8999V9.3999C13.4363 9.3999 14.6004 10.564 14.6004 11.9999H15.1004ZM12.0004 15.0999C13.7125 15.0999 15.1004 13.712 15.1004 11.9999H14.6004C14.6004 13.4358 13.4363 14.5999 12.0004 14.5999V15.0999ZM8.90039 11.9999C8.90039 13.712 10.2883 15.0999 12.0004 15.0999V14.5999C10.5645 14.5999 9.40039 13.4358 9.40039 11.9999H8.90039Z" fill="white"/>
</g>
<defs>
<clipPath id="clip0_329_5158">
<rect width="24" height="24" fill="white"/>
</clipPath>
</defs>
</svg>
