<svg width="24" height="24" viewBox="0 0 24 24" fill="none" xmlns="http://www.w3.org/2000/svg">
<g opacity="0.8">
<mask id="path-1-inside-1_329_5155" fill="white">
<path d="M19.8999 12.66C19.7396 12.4775 19.6512 12.2429 19.6512 12C19.6512 11.7571 19.7396 11.5225 19.8999 11.34L21.1799 9.89999C21.3209 9.74266 21.4085 9.54469 21.4301 9.33449C21.4516 9.1243 21.4061 8.91267 21.2999 8.72999L19.2999 5.26999C19.1948 5.08751 19.0348 4.94286 18.8426 4.85667C18.6505 4.77048 18.4361 4.74714 18.2299 4.78999L16.3499 5.16999C16.1107 5.21942 15.8616 5.17958 15.6498 5.05799C15.4379 4.9364 15.2779 4.74147 15.1999 4.50999L14.5899 2.67999C14.5228 2.48137 14.395 2.30885 14.2245 2.18683C14.0541 2.06481 13.8495 1.99945 13.6399 1.99999H9.6399C9.42183 1.9886 9.20603 2.04891 9.02546 2.1717C8.84489 2.29449 8.70948 2.47301 8.6399 2.67999L8.0799 4.50999C8.0019 4.74147 7.84187 4.9364 7.63001 5.05799C7.41815 5.17958 7.16911 5.21942 6.9299 5.16999L4.9999 4.78999C4.80445 4.76237 4.6052 4.79321 4.42724 4.87863C4.24929 4.96404 4.1006 5.10021 3.9999 5.26999L1.9999 8.72999C1.89106 8.91064 1.84212 9.12107 1.86008 9.33121C1.87804 9.54135 1.96198 9.74043 2.0999 9.89999L3.3699 11.34C3.53022 11.5225 3.61863 11.7571 3.61863 12C3.61863 12.2429 3.53022 12.4775 3.3699 12.66L2.0999 14.1C1.96198 14.2595 1.87804 14.4586 1.86008 14.6688C1.84212 14.8789 1.89106 15.0893 1.9999 15.27L3.9999 18.73C4.10499 18.9125 4.26502 19.0571 4.45715 19.1433C4.64928 19.2295 4.86372 19.2528 5.0699 19.21L6.9499 18.83C7.18911 18.7806 7.43815 18.8204 7.65001 18.942C7.86187 19.0636 8.0219 19.2585 8.0999 19.49L8.7099 21.32C8.77948 21.527 8.91489 21.7055 9.09546 21.8283C9.27603 21.9511 9.49183 22.0114 9.7099 22H13.7099C13.9195 22.0005 14.1241 21.9352 14.2945 21.8131C14.465 21.6911 14.5928 21.5186 14.6599 21.32L15.2699 19.49C15.3479 19.2585 15.5079 19.0636 15.7198 18.942C15.9316 18.8204 16.1807 18.7806 16.4199 18.83L18.2999 19.21C18.5061 19.2528 18.7205 19.2295 18.9126 19.1433C19.1048 19.0571 19.2648 18.9125 19.3699 18.73L21.3699 15.27C21.4761 15.0873 21.5216 14.8757 21.5001 14.6655C21.4785 14.4553 21.3909 14.2573 21.2499 14.1L19.8999 12.66ZM18.4099 14L19.2099 14.9L17.9299 17.12L16.7499 16.88C16.0297 16.7328 15.2805 16.8551 14.6445 17.2238C14.0085 17.5925 13.53 18.1818 13.2999 18.88L12.9199 20H10.3599L9.9999 18.86C9.76975 18.1618 9.29128 17.5725 8.6553 17.2038C8.01932 16.8351 7.27012 16.7128 6.5499 16.86L5.3699 17.1L4.0699 14.89L4.8699 13.99C5.36185 13.44 5.63383 12.7279 5.63383 11.99C5.63383 11.2521 5.36185 10.54 4.8699 9.98999L4.0699 9.08999L5.3499 6.88999L6.5299 7.12999C7.25012 7.27721 7.99932 7.15487 8.6353 6.78619C9.27128 6.4175 9.74975 5.82815 9.9799 5.12999L10.3599 3.99999H12.9199L13.2999 5.13999C13.53 5.83815 14.0085 6.4275 14.6445 6.79619C15.2805 7.16487 16.0297 7.28721 16.7499 7.13999L17.9299 6.89999L19.2099 9.11999L18.4099 10.02C17.9235 10.5687 17.6549 11.2767 17.6549 12.01C17.6549 12.7433 17.9235 13.4512 18.4099 14ZM11.6399 7.99999C10.8488 7.99999 10.0754 8.23458 9.41761 8.67411C8.75982 9.11363 8.24713 9.73835 7.94438 10.4693C7.64163 11.2002 7.56241 12.0044 7.71675 12.7803C7.8711 13.5563 8.25206 14.269 8.81147 14.8284C9.37088 15.3878 10.0836 15.7688 10.8595 15.9231C11.6355 16.0775 12.4397 15.9983 13.1706 15.6955C13.9015 15.3928 14.5262 14.8801 14.9658 14.2223C15.4053 13.5645 15.6399 12.7911 15.6399 12C15.6399 10.9391 15.2185 9.9217 14.4683 9.17156C13.7182 8.42141 12.7008 7.99999 11.6399 7.99999ZM11.6399 14C11.2443 14 10.8577 13.8827 10.5288 13.6629C10.1999 13.4432 9.94351 13.1308 9.79214 12.7654C9.64076 12.3999 9.60116 11.9978 9.67833 11.6098C9.7555 11.2218 9.94598 10.8655 10.2257 10.5858C10.5054 10.3061 10.8618 10.1156 11.2497 10.0384C11.6377 9.96125 12.0398 10.0009 12.4053 10.1522C12.7707 10.3036 13.0831 10.5599 13.3028 10.8888C13.5226 11.2177 13.6399 11.6044 13.6399 12C13.6399 12.5304 13.4292 13.0391 13.0541 13.4142C12.679 13.7893 12.1703 14 11.6399 14Z"/>
</mask>
<path d="M19.8999 12.66C19.7396 12.4775 19.6512 12.2429 19.6512 12C19.6512 11.7571 19.7396 11.5225 19.8999 11.34L21.1799 9.89999C21.3209 9.74266 21.4085 9.54469 21.4301 9.33449C21.4516 9.1243 21.4061 8.91267 21.2999 8.72999L19.2999 5.26999C19.1948 5.08751 19.0348 4.94286 18.8426 4.85667C18.6505 4.77048 18.4361 4.74714 18.2299 4.78999L16.3499 5.16999C16.1107 5.21942 15.8616 5.17958 15.6498 5.05799C15.4379 4.9364 15.2779 4.74147 15.1999 4.50999L14.5899 2.67999C14.5228 2.48137 14.395 2.30885 14.2245 2.18683C14.0541 2.06481 13.8495 1.99945 13.6399 1.99999H9.6399C9.42183 1.9886 9.20603 2.04891 9.02546 2.1717C8.84489 2.29449 8.70948 2.47301 8.6399 2.67999L8.0799 4.50999C8.0019 4.74147 7.84187 4.9364 7.63001 5.05799C7.41815 5.17958 7.16911 5.21942 6.9299 5.16999L4.9999 4.78999C4.80445 4.76237 4.6052 4.79321 4.42724 4.87863C4.24929 4.96404 4.1006 5.10021 3.9999 5.26999L1.9999 8.72999C1.89106 8.91064 1.84212 9.12107 1.86008 9.33121C1.87804 9.54135 1.96198 9.74043 2.0999 9.89999L3.3699 11.34C3.53022 11.5225 3.61863 11.7571 3.61863 12C3.61863 12.2429 3.53022 12.4775 3.3699 12.66L2.0999 14.1C1.96198 14.2595 1.87804 14.4586 1.86008 14.6688C1.84212 14.8789 1.89106 15.0893 1.9999 15.27L3.9999 18.73C4.10499 18.9125 4.26502 19.0571 4.45715 19.1433C4.64928 19.2295 4.86372 19.2528 5.0699 19.21L6.9499 18.83C7.18911 18.7806 7.43815 18.8204 7.65001 18.942C7.86187 19.0636 8.0219 19.2585 8.0999 19.49L8.7099 21.32C8.77948 21.527 8.91489 21.7055 9.09546 21.8283C9.27603 21.9511 9.49183 22.0114 9.7099 22H13.7099C13.9195 22.0005 14.1241 21.9352 14.2945 21.8131C14.465 21.6911 14.5928 21.5186 14.6599 21.32L15.2699 19.49C15.3479 19.2585 15.5079 19.0636 15.7198 18.942C15.9316 18.8204 16.1807 18.7806 16.4199 18.83L18.2999 19.21C18.5061 19.2528 18.7205 19.2295 18.9126 19.1433C19.1048 19.0571 19.2648 18.9125 19.3699 18.73L21.3699 15.27C21.4761 15.0873 21.5216 14.8757 21.5001 14.6655C21.4785 14.4553 21.3909 14.2573 21.2499 14.1L19.8999 12.66ZM18.4099 14L19.2099 14.9L17.9299 17.12L16.7499 16.88C16.0297 16.7328 15.2805 16.8551 14.6445 17.2238C14.0085 17.5925 13.53 18.1818 13.2999 18.88L12.9199 20H10.3599L9.9999 18.86C9.76975 18.1618 9.29128 17.5725 8.6553 17.2038C8.01932 16.8351 7.27012 16.7128 6.5499 16.86L5.3699 17.1L4.0699 14.89L4.8699 13.99C5.36185 13.44 5.63383 12.7279 5.63383 11.99C5.63383 11.2521 5.36185 10.54 4.8699 9.98999L4.0699 9.08999L5.3499 6.88999L6.5299 7.12999C7.25012 7.27721 7.99932 7.15487 8.6353 6.78619C9.27128 6.4175 9.74975 5.82815 9.9799 5.12999L10.3599 3.99999H12.9199L13.2999 5.13999C13.53 5.83815 14.0085 6.4275 14.6445 6.79619C15.2805 7.16487 16.0297 7.28721 16.7499 7.13999L17.9299 6.89999L19.2099 9.11999L18.4099 10.02C17.9235 10.5687 17.6549 11.2767 17.6549 12.01C17.6549 12.7433 17.9235 13.4512 18.4099 14ZM11.6399 7.99999C10.8488 7.99999 10.0754 8.23458 9.41761 8.67411C8.75982 9.11363 8.24713 9.73835 7.94438 10.4693C7.64163 11.2002 7.56241 12.0044 7.71675 12.7803C7.8711 13.5563 8.25206 14.269 8.81147 14.8284C9.37088 15.3878 10.0836 15.7688 10.8595 15.9231C11.6355 16.0775 12.4397 15.9983 13.1706 15.6955C13.9015 15.3928 14.5262 14.8801 14.9658 14.2223C15.4053 13.5645 15.6399 12.7911 15.6399 12C15.6399 10.9391 15.2185 9.9217 14.4683 9.17156C13.7182 8.42141 12.7008 7.99999 11.6399 7.99999ZM11.6399 14C11.2443 14 10.8577 13.8827 10.5288 13.6629C10.1999 13.4432 9.94351 13.1308 9.79214 12.7654C9.64076 12.3999 9.60116 11.9978 9.67833 11.6098C9.7555 11.2218 9.94598 10.8655 10.2257 10.5858C10.5054 10.3061 10.8618 10.1156 11.2497 10.0384C11.6377 9.96125 12.0398 10.0009 12.4053 10.1522C12.7707 10.3036 13.0831 10.5599 13.3028 10.8888C13.5226 11.2177 13.6399 11.6044 13.6399 12C13.6399 12.5304 13.4292 13.0391 13.0541 13.4142C12.679 13.7893 12.1703 14 11.6399 14Z" fill="#333333" stroke="white" mask="url(#path-1-inside-1_329_5155)"/>
</g>
</svg>
