<svg width="16" height="21" viewBox="0 0 16 21" fill="none" xmlns="http://www.w3.org/2000/svg">
<path d="M13.75 11.805V11.9818L13.9167 12.0407C14.4516 12.2298 14.9149 12.5798 15.2431 13.0426C15.5713 13.5053 15.7483 14.0581 15.75 14.6254C15.75 14.6255 15.75 14.6256 15.75 14.6257L15.75 16.625C15.75 16.8239 15.671 17.0147 15.5303 17.1553C15.3897 17.296 15.1989 17.375 15 17.375H11.86H11.6689L11.6187 17.5594C11.4029 18.3538 10.9316 19.0551 10.2776 19.5551C9.62357 20.0551 8.82322 20.326 8 20.326C7.17678 20.326 6.37643 20.0551 5.72243 19.5551C5.06844 19.0551 4.59714 18.3538 4.38125 17.5594L4.33113 17.375H4.14H1C0.801087 17.375 0.610322 17.296 0.46967 17.1553C0.329018 17.0147 0.25 16.8239 0.25 16.625V14.6254C0.251665 14.0581 0.428704 13.5053 0.756859 13.0426C1.08508 12.5798 1.54841 12.2298 2.08333 12.0407L2.25 11.9818V11.805L2.25 8.62525C2.25 8.62517 2.25 8.62508 2.25 8.625C2.25144 7.26725 2.73329 5.9538 3.61024 4.91725C4.48725 3.88062 5.70282 3.18781 7.04167 2.9615L7.25 2.92629V2.715V1.625C7.25 1.42609 7.32902 1.23532 7.46967 1.09467C7.61032 0.954018 7.80109 0.875 8 0.875C8.19891 0.875 8.38968 0.954018 8.53033 1.09467C8.67098 1.23532 8.75 1.42609 8.75 1.625V2.715V2.92629L8.95833 2.9615C10.2972 3.18781 11.5127 3.88062 12.3898 4.91725C13.2668 5.95387 13.7486 7.26741 13.75 8.62525V11.805ZM12 11.875H12.25V11.625V8.625C12.25 7.49783 11.8022 6.41683 11.0052 5.6198C10.2082 4.82277 9.12717 4.375 8 4.375C6.87283 4.375 5.79183 4.82277 4.9948 5.6198C4.19777 6.41683 3.75 7.49783 3.75 8.625V11.625V11.875H4H12ZM6.28 17.375H5.847L6.06349 17.75C6.25982 18.0901 6.54172 18.3728 6.88118 18.5702C7.22064 18.7675 7.60584 18.8726 7.99849 18.875L8.00151 18.875C8.39416 18.8726 8.77936 18.7675 9.11882 18.5702C9.45828 18.3728 9.74018 18.0901 9.93651 17.75L10.153 17.375H9.72H6.28ZM14 15.875H14.25V15.625V14.625C14.25 14.2935 14.1183 13.9755 13.8839 13.7411C13.6495 13.5067 13.3315 13.375 13 13.375H3C2.66848 13.375 2.35054 13.5067 2.11612 13.7411C1.8817 13.9755 1.75 14.2935 1.75 14.625V15.625V15.875H2H14Z" fill="#333333" stroke="white" stroke-width="0.5"/>
</svg>
