<svg width="24" height="25" viewBox="0 0 24 25" fill="none" xmlns="http://www.w3.org/2000/svg">
<path fill-rule="evenodd" clip-rule="evenodd" d="M11.4152 3.27014C11.7964 3.153 12.2039 3.153 12.585 3.27014L15.5707 4.1878C17.1284 4.66655 18.6077 5.37041 19.9617 6.27707C21.0149 6.98225 20.5157 8.625 19.2482 8.625H4.75203C3.48458 8.625 2.98538 6.98226 4.03853 6.27707C5.39257 5.37041 6.87186 4.66655 8.4295 4.18781L11.4152 3.27014ZM12.1443 4.70394C12.0504 4.67506 11.9499 4.67506 11.8559 4.70394L8.87018 5.62161C7.68938 5.98453 6.55803 6.48957 5.50081 7.125H18.4994C17.4422 6.48957 16.3109 5.98453 15.1301 5.62161L12.1443 4.70394Z" fill="black"/>
<path d="M4.25012 21.875C4.25012 21.4608 4.58591 21.125 5.00012 21.125H19.0001C19.4143 21.125 19.7501 21.4608 19.7501 21.875C19.7501 22.2892 19.4143 22.625 19.0001 22.625H5.00012C4.58591 22.625 4.25012 22.2892 4.25012 21.875Z" fill="black"/>
<path d="M6.25012 17.875C6.25012 18.2892 6.58591 18.625 7.00012 18.625C7.41434 18.625 7.75012 18.2892 7.75012 17.875L7.75012 11.875C7.75012 11.4608 7.41434 11.125 7.00012 11.125C6.58591 11.125 6.25012 11.4608 6.25012 11.875L6.25012 17.875Z" fill="black"/>
<path d="M12.0001 18.625C11.5859 18.625 11.2501 18.2892 11.2501 17.875L11.2501 11.875C11.2501 11.4608 11.5859 11.125 12.0001 11.125C12.4143 11.125 12.7501 11.4608 12.7501 11.875V17.875C12.7501 18.2892 12.4143 18.625 12.0001 18.625Z" fill="black"/>
<path d="M16.2501 17.875C16.2501 18.2892 16.5859 18.625 17.0001 18.625C17.4143 18.625 17.7501 18.2892 17.7501 17.875V11.875C17.7501 11.4608 17.4143 11.125 17.0001 11.125C16.5859 11.125 16.2501 11.4608 16.2501 11.875V17.875Z" fill="black"/>
</svg>
