<svg width="24" height="25" viewBox="0 0 24 25" fill="none" xmlns="http://www.w3.org/2000/svg">
<path fill-rule="evenodd" clip-rule="evenodd" d="M11.25 4.65863C7.04513 5.03755 3.75 8.57147 3.75 12.875C3.75 17.4313 7.44365 21.125 12 21.125C14.3214 21.125 16.4185 20.1669 17.9185 18.6226L11.5286 13.4583C11.3524 13.3159 11.25 13.1015 11.25 12.875V4.65863ZM12.75 4.65863V12.125H20.2164C19.8597 8.16715 16.7079 5.01529 12.75 4.65863ZM20.2164 13.625H14.1212L18.8621 17.4565C19.6082 16.3414 20.0895 15.0347 20.2164 13.625ZM2.25 12.875C2.25 7.49022 6.61522 3.125 12 3.125C17.3848 3.125 21.75 7.49022 21.75 12.875C21.75 15.1962 20.9379 17.3298 19.583 19.0041C17.7968 21.2115 15.0632 22.625 12 22.625C6.61522 22.625 2.25 18.2598 2.25 12.875Z" fill="black"/>
</svg>
