<svg width="24" height="23" viewBox="0 0 24 23" fill="none" xmlns="http://www.w3.org/2000/svg">
<path d="M23.6638 14.6473L21.8551 13.4048C21.6779 10.3225 19.3078 7.68943 15.946 6.45898C15.657 8.57108 13.841 10.2026 11.6515 10.2026C9.46269 10.2026 7.64612 8.57108 7.35783 6.45898C7.17649 6.52598 6.99845 6.59629 6.82277 6.67052L3.77704 5.9041C3.58296 5.85378 3.37692 5.89608 3.21806 6.01672C3.05842 6.13657 2.96169 6.3242 2.9554 6.5238L2.85726 9.9462C2.54097 10.3694 2.26949 10.7584 2.05388 11.5569H0.690761C0.309043 11.5569 0 12.4265 0 13.9526C0 15.4786 0.30984 16.3483 0.690761 16.3483H2.05388C2.34847 17.146 2.39565 17.7808 3.19415 18.3333V21.8836C3.19415 22.3548 3.6062 22.7355 4.07572 22.7355L7.34664 22.7357C7.81692 22.7357 7.98551 22.354 7.98551 21.8837V21.3663C9.58252 21.6712 10.3683 21.8383 11.5789 21.8383C12.791 21.8383 14.3737 21.6714 15.1722 21.3663V22.0754C15.1722 22.4411 15.399 22.7366 15.7647 22.7366H19.2264C19.6976 22.7366 19.9635 22.3549 19.9635 21.8847V18.3344C20.762 17.4129 21.3865 16.3549 21.646 15.2129L22.7424 15.9467C22.8789 16.0402 23.0499 16.0856 23.2023 16.0856C23.4522 16.0856 23.7062 15.9658 23.8586 15.7439C24.1056 15.3843 24.0217 14.8941 23.6639 14.6473L23.6638 14.6473Z" fill="#263238"/>
<path d="M11.6512 9.15435C13.4654 9.15435 14.9364 7.68348 14.9364 5.86909C14.9363 4.05485 13.4654 2.58398 11.6512 2.58398C9.83692 2.58398 8.3667 4.05485 8.3667 5.86844C8.3667 7.68344 9.836 9.15431 11.6512 9.15431V9.15435ZM11.6512 4.181C12.5823 4.181 13.3392 4.93799 13.3392 5.86828C13.3392 6.79937 12.5823 7.55637 11.6512 7.55637C10.7209 7.55637 9.96387 6.79937 9.96387 5.86828C9.96387 4.93799 10.7209 4.181 11.6512 4.181Z" fill="#263238"/>
<path d="M5.58956 2.91463L5.96876 2.16472L6.71867 1.78536L5.96876 1.40616L5.58956 0.65625L5.2102 1.40616L4.46045 1.78536L5.2102 2.16472L5.58956 2.91463Z" fill="#263238"/>
<path d="M21.5717 8.1626L22.1706 9.35006L22.7696 8.1626L23.9561 7.56368L22.7696 6.96476L22.1706 5.77808L21.5717 6.96476L20.3843 7.56368L21.5717 8.1626Z" fill="#263238"/>
</svg>
