<svg width="24" height="25" viewBox="0 0 24 25" fill="none" xmlns="http://www.w3.org/2000/svg">
<g opacity="0.8">
<path d="M17.8049 17.0786L17.6641 17.2541L17.8238 17.4125L21.5318 21.0905C21.666 21.2302 21.7409 21.4163 21.7409 21.61C21.7409 21.804 21.6657 21.9904 21.5313 22.1301C21.4618 22.1999 21.3792 22.2553 21.2883 22.2931C21.1969 22.3312 21.0989 22.3508 20.9999 22.3508C20.9009 22.3508 20.8029 22.3312 20.7115 22.2931C20.6201 22.255 20.5371 22.1992 20.4674 22.129L20.4667 22.1282L16.7867 18.4482L16.6283 18.2898L16.4535 18.43C14.7078 19.8301 12.492 20.5081 10.2617 20.3247C8.03142 20.1412 5.9562 19.1102 4.46273 17.4437C2.96926 15.7771 2.17107 13.6017 2.23228 11.3648C2.29349 9.12779 3.20945 6.99929 4.79182 5.41692C6.37419 3.83455 8.50269 2.91859 10.7397 2.85738C12.9766 2.79617 15.152 3.59436 16.8186 5.08782C18.4851 6.58129 19.5161 8.65652 19.6996 10.8868C19.883 13.1171 19.205 15.3329 17.8049 17.0786ZM6.97202 17.6532C8.16428 18.4498 9.56599 18.875 10.9999 18.875C12.9227 18.875 14.7668 18.1112 16.1264 16.7515C17.4861 15.3919 18.2499 13.5478 18.2499 11.625C18.2499 10.1911 17.8247 8.78937 17.0281 7.59712C16.2314 6.40486 15.0991 5.47561 13.7744 4.92687C12.4496 4.37814 10.9919 4.23456 9.5855 4.51431C8.17914 4.79405 6.88731 5.48454 5.87338 6.49848C4.85945 7.51241 4.16895 8.80423 3.88921 10.2106C3.60947 11.617 3.75304 13.0747 4.30178 14.3995C4.85051 15.7242 5.77976 16.8565 6.97202 17.6532Z" fill="#333333" stroke="white" stroke-width="0.5"/>
</g>
</svg>
